<?xml version="1.0" encoding="utf-8"?>
<!-- Generator: Adobe Illustrator 18.0.0, SVG Export Plug-In . SVG Version: 6.00 Build 0)  -->
<!DOCTYPE svg PUBLIC "-//W3C//DTD SVG 1.1//EN" "http://www.w3.org/Graphics/SVG/1.1/DTD/svg11.dtd">
<svg version="1.1" id="图层_1" xmlns="http://www.w3.org/2000/svg" xmlns:xlink="http://www.w3.org/1999/xlink" x="0px" y="0px"
	 viewBox="0 0 250 250" enable-background="new 0 0 250 250" xml:space="preserve">
<g>
	<path fill="#0F1010" d="M221,152.7L221,152.7c0.2-0.1,0.5-0.1,0.8,0c-0.7-2.2-1.7-4.1-2.7-4.8c-0.8-0.6-2.7-0.9-5.2-0.9l-0.1,0
		c-2.8-4.7-3.9-7-7.4,0.5c-1.5,0.2-2.9,0.4-4.4,0.6c0,0,0,0,0.1,0.1l-1,0.3c-3.9-3.9-5.5-6-7.1,2.1l-0.3,0.1c0-0.3,0.1-0.5,0.1-0.7
		c-1.5,0.5-2.5,1-2.9,1.4c-1.9,2.5,2.9,18.2,0,22.4c-2.9,4.2-16.6,7-18.5,4.2c-0.2-0.3-0.1-2.3,0.2-5.6c0,0-0.1,0-0.1,0.1l0.1-0.7
		c4.3-2.3,6.4-3.2,0.9-7.7c0.4-3.7,0.9-7.9,1.4-12.7c4.7-3.3,7.1-4.5,0.8-9.1l0-0.9c0.1,0.1,0.2,0.1,0.3,0.2
		c0.5-5.2,1.1-10.8,1.6-16.6c5.2-3.5,8-4.7,0.8-9.6c0,0,0-0.1,0-0.1l0-0.7c0.4-4.6,0.7-9.4,1-14.1c0,0-0.1,0-0.1,0.1l0-0.7
		c4.7-2.4,7-3.3,0.4-7.5l0-0.8c0,0,0.1,0,0.1,0c0.4-8.3,0.6-16.6,0.5-24.5c6.8-4.3,10.5-5.7-0.3-10.8c-0.2-3.8-0.4-7.5-0.8-11
		c-0.1,0-0.1,0.1-0.2,0.1l-0.1-0.9c5.8-4.5,8.7-6.1-1.4-10.6c-1.9-9.6-4.8-17-9.2-20.8C139-12.8,24.6,4.9,12.8,32.9
		c-6.4,15.1,10.2,86.5,14,87.8c0.6,0.2,1.4,0.2,2.3,0.1c1.1,7.2,2.9,4.6,3.7-0.6c0.9-0.2,1.9-0.3,2.8-0.5c1.4,9.5,3.9,6.2,5-0.3
		c2.8,0.3,5.1,1.5,5.6,5.1c1.3,9.6-6.8,6.4-7.7,7.7c-1.3,1.9-1.3,6.7,3.5,8.9c4.5-3.2,95.8-26.5,90.3-3.2c-0.9,4-2.2,8.2-3.7,12.6
		c-8.1-1.2-25.3-1.9-27.2-1.3c-2.7,0.8-2.1,12.3-0.5,12.9c1.5,0.6,2.2-6.7,4.6-6.6c1,0,4.9,6.5,6.7,6c1.3-0.4-1.3-5.2-0.4-6.8
		c0.6-1,9.8-0.8,15.7-1c-1.9,5.6-4,11.4-5.8,17.2c-7.7-1.2-20.9-1.8-22.8-1.2c-2.7,0.8-2.1,12.3-0.5,12.9c1.5,0.6,2.2-6.7,4.6-6.6
		c1,0,4.9,6.5,6.7,6c1.3-0.4-1.3-5.2-0.4-6.8c0.6-0.9,6.5-0.9,11.3-1.1c-3.9,13.9-5.2,27,3.3,35.6c3.2,3.2,8.1,4.5,13.9,4.5
		c0.4,0,0.8,0,1.1,0c2.6,7.9,5.8,15.5,9.5,23.1c-0.3,0.1-3,0.7-3,0.7c-2.7,0.7-4.6,2.5-4.4,3.9c0.2,1.4,7.8,0.4,7.8,0.4
		c0,0-5.6,3.8-4.6,4.9c1.1,1.1,4.1,1,6.8-0.2c1.3-0.6,6.3-2.1,7.3-2.4c2.8-1,3.6-2.9,2.5-4.6c-5.9-8.4-10.8-17.3-14.8-26.5
		c5.9-0.9,12.2-2.6,18.5-4.8c0.3-0.1,0.5-0.2,0.8-0.3c2.5,7.7,5.7,15.1,9.3,22.5c-0.3,0.1-3,0.7-3,0.7c-2.7,0.8-4.6,2.5-4.4,3.8
		c0.2,1.4,7.7,0.4,7.8,0.4c0,0-5.7,3.7-4.6,4.8c1.1,1.1,4.1,1,6.8-0.2c1.3-0.6,6.3-2.1,7.3-2.4c2.8-1,3.6-2.9,2.6-4.5
		c-6.2-8.7-11.3-17.9-15.3-27.5c17.5-6.9,32.8-16.1,33.5-18.6c1.3-5.1-2-27.5-2.1-30.3c-0.2-2.8,9.9-3.2,12.4-1.3
		c2.6,1.9,0.6,11.2,4.8,10.2c2-0.5,2.5-4.3,1.9-8.3l-0.1-0.4C226.5,154.5,228.4,153.3,221,152.7z M73.9,27.8
		c-7.7,0.9-12.4-0.9-12.2-5c0.2-3.5,5.6-7.1,12-7.8c6.3-0.7,9.9,1.8,11,5.2C86.2,24.7,82.1,26.9,73.9,27.8z M102,23.5
		c-6.8,0.8-10.5-0.2-10.1-4.1c0.3-2.9,2.7-5.6,7.9-6.2c5.2-0.6,10.2,1.3,11,4C111.9,20.5,108.4,22.8,102,23.5z"/>
	<path fill="#0F1010" d="M70,18c-2.4,0-4.4,1.8-4.4,4.1c0,2.3,1.4,4.1,4.4,4.1c3,0,4.4-1.8,4.4-4.1C74.4,19.9,72.4,18,70,18z"/>
	<path fill="#0F1010" d="M99,15c-1.9,0-3.4,1.5-3.4,3.3c0,1.8,1.1,3.3,3.4,3.3c2.3,0,3.4-1.5,3.4-3.3C102.4,16.5,100.9,15,99,15z"/>
</g>
</svg>
